<?xml version="1.0" encoding="UTF-8"?>
<svg width="116px" height="20px" viewBox="0 0 116 20" version="1.1" xmlns="http://www.w3.org/2000/svg" xmlns:xlink="http://www.w3.org/1999/xlink">
    <!-- Generator: Sketch 45.2 (43514) - http://www.bohemiancoding.com/sketch -->
    <title>Group</title>
    <desc>Created with Sketch.</desc>
    <defs></defs>
    <g id="Welcome" stroke="none" stroke-width="1" fill="none" fill-rule="evenodd">
        <g id="sfu-trade-desktop" transform="translate(-13.000000, -20.000000)">
            <g id="nav" transform="translate(-1.000000, 0.000000)">
                <g id="Group" transform="translate(14.000000, 20.000000)">
                    <path d="M11.292,6.424 C10.9399982,5.97599776 10.4800028,5.62000132 9.912,5.356 C9.34399716,5.09199868 8.79600264,4.96 8.268,4.96 C7.99599864,4.96 7.7200014,4.98399976 7.44,5.032 C7.1599986,5.08000024 6.90800112,5.17199932 6.684,5.308 C6.45999888,5.44400068 6.27200076,5.61999892 6.12,5.836 C5.96799924,6.05200108 5.892,6.32799832 5.892,6.664 C5.892,6.95200144 5.9519994,7.19199904 6.072,7.384 C6.1920006,7.57600096 6.36799884,7.74399928 6.6,7.888 C6.83200116,8.03200072 7.1079984,8.1639994 7.428,8.284 C7.7480016,8.4040006 8.107998,8.52799936 8.508,8.656 C9.08400288,8.84800096 9.68399688,9.05999884 10.308,9.292 C10.9320031,9.52400116 11.4999974,9.83199808 12.012,10.216 C12.5240026,10.6000019 12.9479983,11.0759972 13.284,11.644 C13.6200017,12.2120028 13.788,12.9199958 13.788,13.768 C13.788,14.7440049 13.6080018,15.5879964 13.248,16.3 C12.8879982,17.0120036 12.404003,17.5999977 11.796,18.064 C11.187997,18.5280023 10.4920039,18.8719989 9.708,19.096 C8.92399608,19.3200011 8.11600416,19.432 7.284,19.432 C6.06799392,19.432 4.89200568,19.2200021 3.756,18.796 C2.61999432,18.3719979 1.67600376,17.7680039 0.924,16.984 L3.612,14.248 C4.02800208,14.7600026 4.5759966,15.1879983 5.256,15.532 C5.9360034,15.8760017 6.61199664,16.048 7.284,16.048 C7.58800152,16.048 7.88399856,16.0160003 8.172,15.952 C8.46000144,15.8879997 8.71199892,15.7840007 8.928,15.64 C9.14400108,15.4959993 9.31599936,15.3040012 9.444,15.064 C9.57200064,14.8239988 9.636,14.5360017 9.636,14.2 C9.636,13.8799984 9.5560008,13.6080011 9.396,13.384 C9.2359992,13.1599989 9.00800148,12.9560009 8.712,12.772 C8.41599852,12.5879991 8.0480022,12.4200008 7.608,12.268 C7.1679978,12.1159992 6.6680028,11.9520009 6.108,11.776 C5.56399728,11.5999991 5.0320026,11.3920012 4.512,11.152 C3.9919974,10.9119988 3.52800204,10.6040019 3.12,10.228 C2.71199796,9.85199812 2.38400124,9.39600268 2.136,8.86 C1.88799876,8.32399732 1.764,7.67200384 1.764,6.904 C1.764,5.95999528 1.95599808,5.15200336 2.34,4.48 C2.72400192,3.80799664 3.22799688,3.25600216 3.852,2.824 C4.47600312,2.39199784 5.17999608,2.076001 5.964,1.876 C6.74800392,1.675999 7.539996,1.576 8.34,1.576 C9.3000048,1.576 10.279995,1.75199824 11.28,2.104 C12.280005,2.45600176 13.1559962,2.97599656 13.908,3.664 L11.292,6.424 Z M20.556,5.512 L20.556,9.016 L27.132,9.016 L27.132,12.4 L20.556,12.4 L20.556,19 L16.5,19 L16.5,2.008 L27.684,2.008 L27.684,5.512 L20.556,5.512 Z M44.724,12.592 C44.724,13.6160051 44.5520017,14.5479958 44.208,15.388 C43.8639983,16.2280042 43.3720032,16.947997 42.732,17.548 C42.0919968,18.148003 41.3200045,18.6159983 40.416,18.952 C39.5119955,19.2880017 38.5080055,19.456 37.404,19.456 C36.2839944,19.456 35.2760045,19.2880017 34.38,18.952 C33.4839955,18.6159983 32.7240031,18.148003 32.1,17.548 C31.4759969,16.947997 30.9960017,16.2280042 30.66,15.388 C30.3239983,14.5479958 30.156,13.6160051 30.156,12.592 L30.156,2.008 L34.236,2.008 L34.236,12.256 C34.236,12.7200023 34.2959994,13.1599979 34.416,13.576 C34.5360006,13.9920021 34.7199988,14.3639984 34.968,14.692 C35.2160012,15.0200016 35.543998,15.279999 35.952,15.472 C36.360002,15.664001 36.8519971,15.76 37.428,15.76 C38.0040029,15.76 38.495998,15.664001 38.904,15.472 C39.312002,15.279999 39.6439987,15.0200016 39.9,14.692 C40.1560013,14.3639984 40.3399994,13.9920021 40.452,13.576 C40.5640006,13.1599979 40.62,12.7200023 40.62,12.256 L40.62,2.008 L44.724,2.008 L44.724,12.592 Z M59.988,19 L58.26,19 L58.26,3.544 L52.572,3.544 L52.572,2.008 L65.676,2.008 L65.676,3.544 L59.988,3.544 L59.988,19 Z M68.124,10.24 C68.124,9.93599848 68.1160001,9.5440024 68.1,9.064 C68.0839999,8.5839976 68.0600002,8.15200192 68.028,7.768 L69.588,7.768 C69.6200002,8.07200152 69.6439999,8.40799816 69.66,8.776 C69.6760001,9.14400184 69.684,9.4479988 69.684,9.688 L69.732,9.688 C70.0520016,9.03199672 70.5319968,8.50000204 71.172,8.092 C71.8120032,7.68399796 72.531996,7.48 73.332,7.48 C73.540001,7.48 73.7279992,7.48799992 73.896,7.504 C74.0640008,7.52000008 74.2359991,7.55199976 74.412,7.6 L74.196,9.136 C74.0999995,9.10399984 73.9400011,9.07200016 73.716,9.04 C73.4919989,9.00799984 73.2680011,8.992 73.044,8.992 C72.6119978,8.992 72.196002,9.0719992 71.796,9.232 C71.395998,9.3920008 71.0480015,9.64399828 70.752,9.988 C70.4559985,10.3320017 70.2160009,10.7719973 70.032,11.308 C69.8479991,11.8440027 69.756,12.4879962 69.756,13.24 L69.756,19 L68.124,19 L68.124,10.24 Z M83.844,11.752 C83.844,10.7759951 83.5880026,10.0480024 83.076,9.568 C82.5639974,9.0879976 81.8200049,8.848 80.844,8.848 C80.1719966,8.848 79.5480029,8.9679988 78.972,9.208 C78.3959971,9.4480012 77.908002,9.767998 77.508,10.168 L76.596,9.088 C77.0600023,8.62399768 77.6719962,8.24000152 78.432,7.936 C79.1920038,7.63199848 80.0519952,7.48 81.012,7.48 C81.620003,7.48 82.1879974,7.56399916 82.716,7.732 C83.2440026,7.90000084 83.707998,8.15199832 84.108,8.488 C84.508002,8.82400168 84.8199989,9.24799744 85.044,9.76 C85.2680011,10.2720026 85.38,10.8719966 85.38,11.56 L85.38,16.48 C85.38,16.9120022 85.3959998,17.3599977 85.428,17.824 C85.4600002,18.2880023 85.5079997,18.6799984 85.572,19 L84.108,19 C84.0599998,18.7279986 84.0200002,18.4320016 83.988,18.112 C83.9559998,17.7919984 83.94,17.4800015 83.94,17.176 L83.892,17.176 C83.3799974,17.9280038 82.8000032,18.4679984 82.152,18.796 C81.5039968,19.1240016 80.7240046,19.288 79.812,19.288 C79.3799978,19.288 78.9360023,19.2280006 78.48,19.108 C78.0239977,18.9879994 77.6080019,18.7920014 77.232,18.52 C76.8559981,18.2479986 76.5440012,17.8960022 76.296,17.464 C76.0479988,17.0319978 75.924,16.5040031 75.924,15.88 C75.924,15.0159957 76.1439978,14.3320025 76.584,13.828 C77.0240022,13.3239975 77.6119963,12.9480012 78.348,12.7 C79.0840037,12.4519988 79.9279952,12.2920004 80.88,12.22 C81.8320048,12.1479996 82.8199949,12.112 83.844,12.112 L83.844,11.752 Z M83.364,13.384 C82.6919966,13.384 82.0160034,13.4119997 81.336,13.468 C80.6559966,13.5240003 80.0400028,13.6359992 79.488,13.804 C78.9359972,13.9720008 78.4840018,14.2159984 78.132,14.536 C77.7799982,14.8560016 77.604,15.2799974 77.604,15.808 C77.604,16.208002 77.6799992,16.5439986 77.832,16.816 C77.9840008,17.0880014 78.1879987,17.3079992 78.444,17.476 C78.7000013,17.6440008 78.9839984,17.7639996 79.296,17.836 C79.6080016,17.9080004 79.9239984,17.944 80.244,17.944 C80.8200029,17.944 81.3319978,17.844001 81.78,17.644 C82.2280022,17.443999 82.6039985,17.1720017 82.908,16.828 C83.2120015,16.4839983 83.4439992,16.0880022 83.604,15.64 C83.7640008,15.1919978 83.844,14.7200025 83.844,14.224 L83.844,13.384 L83.364,13.384 Z M98.82,17.104 C98.3399976,17.8240036 97.7160038,18.3679982 96.948,18.736 C96.1799962,19.1040018 95.3880041,19.288 94.572,19.288 C93.6919956,19.288 92.8960036,19.1360015 92.184,18.832 C91.4719964,18.5279985 90.8640025,18.1120026 90.36,17.584 C89.8559975,17.0559974 89.4640014,16.4320036 89.184,15.712 C88.9039986,14.9919964 88.764,14.2160042 88.764,13.384 C88.764,12.5519958 88.9039986,11.7760036 89.184,11.056 C89.4640014,10.3359964 89.8559975,9.71200264 90.36,9.184 C90.8640025,8.65599736 91.4719964,8.24000152 92.184,7.936 C92.8960036,7.63199848 93.6919956,7.48 94.572,7.48 C95.3880041,7.48 96.1799962,7.66799812 96.948,8.044 C97.7160038,8.42000188 98.3399976,8.97599632 98.82,9.712 L98.868,9.712 L98.868,0.856 L100.5,0.856 L100.5,19 L98.868,19 L98.868,17.104 L98.82,17.104 Z M90.492,13.384 C90.492,14.0080031 90.587999,14.5959972 90.78,15.148 C90.972001,15.7000028 91.2479982,16.179998 91.608,16.588 C91.9680018,16.996002 92.4119974,17.3159988 92.94,17.548 C93.4680026,17.7800012 94.0679966,17.896 94.74,17.896 C95.3640031,17.896 95.9399974,17.7800012 96.468,17.548 C96.9960026,17.3159988 97.4519981,17.000002 97.836,16.6 C98.2200019,16.199998 98.5199989,15.7240028 98.736,15.172 C98.9520011,14.6199972 99.06,14.0240032 99.06,13.384 C99.06,12.7439968 98.9520011,12.1480028 98.736,11.596 C98.5199989,11.0439972 98.2200019,10.564002 97.836,10.156 C97.4519981,9.74799796 96.9960026,9.42800116 96.468,9.196 C95.9399974,8.96399884 95.3640031,8.848 94.74,8.848 C94.0679966,8.848 93.4680026,8.9679988 92.94,9.208 C92.4119974,9.4480012 91.9680018,9.77199796 91.608,10.18 C91.2479982,10.588002 90.972001,11.0679972 90.78,11.62 C90.587999,12.1720028 90.492,12.7599969 90.492,13.384 Z M113.436,12.52 C113.388,11.4639947 113.048003,10.5880035 112.416,9.892 C111.783997,9.19599652 110.884006,8.848 109.716,8.848 C109.171997,8.848 108.668002,8.947999 108.204,9.148 C107.739998,9.348001 107.332002,9.61999828 106.98,9.964 C106.627998,10.3080017 106.348001,10.6999978 106.14,11.14 C105.931999,11.5800022 105.812,12.0399976 105.78,12.52 L113.436,12.52 Z M115.092,13.048 L115.092,13.408 C115.092,13.5360006 115.084,13.6719993 115.068,13.816 L105.756,13.816 C105.772,14.3760028 105.883999,14.9039975 106.092,15.4 C106.300001,15.8960025 106.587998,16.3279982 106.956,16.696 C107.324002,17.0640018 107.755998,17.3559989 108.252,17.572 C108.748002,17.7880011 109.283997,17.896 109.86,17.896 C110.708004,17.896 111.439997,17.700002 112.056,17.308 C112.672003,16.915998 113.139998,16.4640026 113.46,15.952 L114.684,16.912 C114.011997,17.7600042 113.272004,18.3679982 112.464,18.736 C111.655996,19.1040018 110.788005,19.288 109.86,19.288 C109.027996,19.288 108.256004,19.1400015 107.544,18.844 C106.831996,18.5479985 106.220003,18.1360026 105.708,17.608 C105.195997,17.0799974 104.792001,16.4560036 104.496,15.736 C104.199999,15.0159964 104.052,14.2320042 104.052,13.384 C104.052,12.5359958 104.195999,11.7520036 104.484,11.032 C104.772001,10.3119964 105.171997,9.68800264 105.684,9.16 C106.196003,8.63199736 106.795997,8.22000148 107.484,7.924 C108.172003,7.62799852 108.915996,7.48 109.716,7.48 C110.596004,7.48 111.371997,7.62799852 112.044,7.924 C112.716003,8.22000148 113.275998,8.61999748 113.724,9.124 C114.172002,9.62800252 114.511999,10.2159966 114.744,10.888 C114.976001,11.5600034 115.092,12.2799962 115.092,13.048 Z" id="SFU-Trade" fill="#9E1526"></path>
                    <path d="M60.128,19 L58.4,19 L58.4,3.544 L52.712,3.544 L52.712,2.008 L65.816,2.008 L65.816,3.544 L60.128,3.544 L60.128,19 Z M68.264,10.24 C68.264,9.93599848 68.2560001,9.5440024 68.24,9.064 C68.2239999,8.5839976 68.2000002,8.15200192 68.168,7.768 L69.728,7.768 C69.7600002,8.07200152 69.7839999,8.40799816 69.8,8.776 C69.8160001,9.14400184 69.824,9.4479988 69.824,9.688 L69.872,9.688 C70.1920016,9.03199672 70.6719968,8.50000204 71.312,8.092 C71.9520032,7.68399796 72.671996,7.48 73.472,7.48 C73.680001,7.48 73.8679992,7.48799992 74.036,7.504 C74.2040008,7.52000008 74.3759991,7.55199976 74.552,7.6 L74.336,9.136 C74.2399995,9.10399984 74.0800011,9.07200016 73.856,9.04 C73.6319989,9.00799984 73.4080011,8.992 73.184,8.992 C72.7519978,8.992 72.336002,9.0719992 71.936,9.232 C71.535998,9.3920008 71.1880015,9.64399828 70.892,9.988 C70.5959985,10.3320017 70.3560009,10.7719973 70.172,11.308 C69.9879991,11.8440027 69.896,12.4879962 69.896,13.24 L69.896,19 L68.264,19 L68.264,10.24 Z M83.984,11.752 C83.984,10.7759951 83.7280026,10.0480024 83.216,9.568 C82.7039974,9.0879976 81.9600049,8.848 80.984,8.848 C80.3119966,8.848 79.6880029,8.9679988 79.112,9.208 C78.5359971,9.4480012 78.048002,9.767998 77.648,10.168 L76.736,9.088 C77.2000023,8.62399768 77.8119962,8.24000152 78.572,7.936 C79.3320038,7.63199848 80.1919952,7.48 81.152,7.48 C81.760003,7.48 82.3279974,7.56399916 82.856,7.732 C83.3840026,7.90000084 83.847998,8.15199832 84.248,8.488 C84.648002,8.82400168 84.9599989,9.24799744 85.184,9.76 C85.4080011,10.2720026 85.52,10.8719966 85.52,11.56 L85.52,16.48 C85.52,16.9120022 85.5359998,17.3599977 85.568,17.824 C85.6000002,18.2880023 85.6479997,18.6799984 85.712,19 L84.248,19 C84.1999998,18.7279986 84.1600002,18.4320016 84.128,18.112 C84.0959998,17.7919984 84.08,17.4800015 84.08,17.176 L84.032,17.176 C83.5199974,17.9280038 82.9400032,18.4679984 82.292,18.796 C81.6439968,19.1240016 80.8640046,19.288 79.952,19.288 C79.5199978,19.288 79.0760023,19.2280006 78.62,19.108 C78.1639977,18.9879994 77.7480019,18.7920014 77.372,18.52 C76.9959981,18.2479986 76.6840012,17.8960022 76.436,17.464 C76.1879988,17.0319978 76.064,16.5040031 76.064,15.88 C76.064,15.0159957 76.2839978,14.3320025 76.724,13.828 C77.1640022,13.3239975 77.7519963,12.9480012 78.488,12.7 C79.2240037,12.4519988 80.0679952,12.2920004 81.02,12.22 C81.9720048,12.1479996 82.9599949,12.112 83.984,12.112 L83.984,11.752 Z M83.504,13.384 C82.8319966,13.384 82.1560034,13.4119997 81.476,13.468 C80.7959966,13.5240003 80.1800028,13.6359992 79.628,13.804 C79.0759972,13.9720008 78.6240018,14.2159984 78.272,14.536 C77.9199982,14.8560016 77.744,15.2799974 77.744,15.808 C77.744,16.208002 77.8199992,16.5439986 77.972,16.816 C78.1240008,17.0880014 78.3279987,17.3079992 78.584,17.476 C78.8400013,17.6440008 79.1239984,17.7639996 79.436,17.836 C79.7480016,17.9080004 80.0639984,17.944 80.384,17.944 C80.9600029,17.944 81.4719978,17.844001 81.92,17.644 C82.3680022,17.443999 82.7439985,17.1720017 83.048,16.828 C83.3520015,16.4839983 83.5839992,16.0880022 83.744,15.64 C83.9040008,15.1919978 83.984,14.7200025 83.984,14.224 L83.984,13.384 L83.504,13.384 Z M98.96,17.104 C98.4799976,17.8240036 97.8560038,18.3679982 97.088,18.736 C96.3199962,19.1040018 95.5280041,19.288 94.712,19.288 C93.8319956,19.288 93.0360036,19.1360015 92.324,18.832 C91.6119964,18.5279985 91.0040025,18.1120026 90.5,17.584 C89.9959975,17.0559974 89.6040014,16.4320036 89.324,15.712 C89.0439986,14.9919964 88.904,14.2160042 88.904,13.384 C88.904,12.5519958 89.0439986,11.7760036 89.324,11.056 C89.6040014,10.3359964 89.9959975,9.71200264 90.5,9.184 C91.0040025,8.65599736 91.6119964,8.24000152 92.324,7.936 C93.0360036,7.63199848 93.8319956,7.48 94.712,7.48 C95.5280041,7.48 96.3199962,7.66799812 97.088,8.044 C97.8560038,8.42000188 98.4799976,8.97599632 98.96,9.712 L99.008,9.712 L99.008,0.856 L100.64,0.856 L100.64,19 L99.008,19 L99.008,17.104 L98.96,17.104 Z M90.632,13.384 C90.632,14.0080031 90.727999,14.5959972 90.92,15.148 C91.112001,15.7000028 91.3879982,16.179998 91.748,16.588 C92.1080018,16.996002 92.5519974,17.3159988 93.08,17.548 C93.6080026,17.7800012 94.2079966,17.896 94.88,17.896 C95.5040031,17.896 96.0799974,17.7800012 96.608,17.548 C97.1360026,17.3159988 97.5919981,17.000002 97.976,16.6 C98.3600019,16.199998 98.6599989,15.7240028 98.876,15.172 C99.0920011,14.6199972 99.2,14.0240032 99.2,13.384 C99.2,12.7439968 99.0920011,12.1480028 98.876,11.596 C98.6599989,11.0439972 98.3600019,10.564002 97.976,10.156 C97.5919981,9.74799796 97.1360026,9.42800116 96.608,9.196 C96.0799974,8.96399884 95.5040031,8.848 94.88,8.848 C94.2079966,8.848 93.6080026,8.9679988 93.08,9.208 C92.5519974,9.4480012 92.1080018,9.77199796 91.748,10.18 C91.3879982,10.588002 91.112001,11.0679972 90.92,11.62 C90.727999,12.1720028 90.632,12.7599969 90.632,13.384 Z M113.576,12.52 C113.528,11.4639947 113.188003,10.5880035 112.556,9.892 C111.923997,9.19599652 111.024006,8.848 109.856,8.848 C109.311997,8.848 108.808002,8.947999 108.344,9.148 C107.879998,9.348001 107.472002,9.61999828 107.12,9.964 C106.767998,10.3080017 106.488001,10.6999978 106.28,11.14 C106.071999,11.5800022 105.952,12.0399976 105.92,12.52 L113.576,12.52 Z M115.232,13.048 L115.232,13.408 C115.232,13.5360006 115.224,13.6719993 115.208,13.816 L105.896,13.816 C105.912,14.3760028 106.023999,14.9039975 106.232,15.4 C106.440001,15.8960025 106.727998,16.3279982 107.096,16.696 C107.464002,17.0640018 107.895998,17.3559989 108.392,17.572 C108.888002,17.7880011 109.423997,17.896 110,17.896 C110.848004,17.896 111.579997,17.700002 112.196,17.308 C112.812003,16.915998 113.279998,16.4640026 113.6,15.952 L114.824,16.912 C114.151997,17.7600042 113.412004,18.3679982 112.604,18.736 C111.795996,19.1040018 110.928005,19.288 110,19.288 C109.167996,19.288 108.396004,19.1400015 107.684,18.844 C106.971996,18.5479985 106.360003,18.1360026 105.848,17.608 C105.335997,17.0799974 104.932001,16.4560036 104.636,15.736 C104.339999,15.0159964 104.192,14.2320042 104.192,13.384 C104.192,12.5359958 104.335999,11.7520036 104.624,11.032 C104.912001,10.3119964 105.311997,9.68800264 105.824,9.16 C106.336003,8.63199736 106.935997,8.22000148 107.624,7.924 C108.312003,7.62799852 109.055996,7.48 109.856,7.48 C110.736004,7.48 111.511997,7.62799852 112.184,7.924 C112.856003,8.22000148 113.415998,8.61999748 113.864,9.124 C114.312002,9.62800252 114.651999,10.2159966 114.884,10.888 C115.116001,11.5600034 115.232,12.2799962 115.232,13.048 Z" id="Trade" fill="#4A4A4A"></path>
                </g>
            </g>
        </g>
    </g>
</svg>